<svg xmlns="http://www.w3.org/2000/svg" xmlns:xlink="http://www.w3.org/1999/xlink" width="132.293" height="132.293" viewBox="0 0 132.293 132.293">
  <defs>
    <linearGradient id="linear-gradient" x1="-0.029" y1="-36.795" x2="37.766" y2="1" gradientUnits="objectBoundingBox">
      <stop offset="0" stop-color="#f50022"/>
      <stop offset="1" stop-color="#81004f"/>
    </linearGradient>
  </defs>
  <g id="faztcommunity" transform="translate(0.001 -164.707)">
    <path class='scolor'  id="path3511" d="M69.907,164.708l-.352,0-.352,0-.351.005-.352.007-.351.009-.352.011-.351.013-.351.015-.351.016-.351.019-.351.02-.351.022-.351.024-.351.026-.351.028-.35.029-.35.031-.35.034-.35.035-.35.037-.349.039-.35.041-.349.042-.349.044-.348.047-.349.048-.348.05-.348.052-.347.054-.348.056-.347.057-.347.059-.347.061-.346.063-.346.065-.346.067-.345.069-.345.07-.344.072-.344.074-.344.076-.343.077-.343.08-.342.081-.342.083-.341.085-.341.087-.341.089-.34.09-.34.092-.339.094-.338.1-.338.1-.337.1-.337.1-.336.1-.336.1-.335.106-.335.109-.334.11-.333.112-.333.114-.332.115-.332.117-.331.119-.33.12-.33.122-.329.125-.329.126-.328.128-.327.129-.327.131-.326.133-.325.135-.324.136-.324.138-.322.14-.322.142-.321.144-.32.145-.32.147-.319.148-.318.15-.317.152-.317.153-.316.155-.315.157-.314.159-.313.16-.313.162-.311.163-.311.165-.31.166-.309.168-.308.17-.307.172-.306.174-.305.175-.3.177-.3.178-.3.18-.3.181-.3.183-.3.185-.3.186-.3.188-.3.19-.3.191-.295.193-.293.194-.292.2-.291.2-.29.2-.289.2-.288.2-.287.2-.286.2-.285.207-.284.208-.283.209-.282.211-.28.212-.28.214-.278.215-.277.217-.276.218-.275.22-.273.221-.272.222-.271.224-.27.226-.269.227-.268.228-.267.229-.265.231-.264.233-.263.234-.261.235-.26.237-.259.238-.257.239-.256.241-.255.242-.254.244-.252.245-.251.246-.25.248-.249.249-.247.25-.246.252-.244.253-.243.254-.242.256-.241.257-.239.258-.238.259-.237.26-.235.262-.234.263-.232.264-.231.266-.229.267-.228.268-.227.269-.225.27-.224.272-.222.273-.221.274-.219.275-.218.276-.217.278-.214.279-.213.28-.212.281-.21.282-.209.283-.207.284-.206.285-.2.286-.2.288-.2.288-.2.29-.2.29-.2.292-.195.292-.194.294-.192.295-.19.3-.189.3-.187.3-.186.3-.184.3-.182.3-.181.3-.179.3-.177.3-.176.3-.174.305-.173.306-.171.307-.169.309-.168.309-.166.31-.164.311-.163.312-.161.313-.16.314-.158.314-.157.315-.155.316-.152.317-.151.318-.149.318-.148.319-.146.32-.145.321-.143.321-.141.322-.139.323-.137.323-.136.325-.134.326-.132.326-.131.327-.129.327-.127.328-.125.329-.124.329-.121.33-.12.331-.118.331-.116.332-.115.333-.113.333q-.056.167-.111.334t-.11.334q-.054.167-.108.335t-.106.335q-.052.168-.1.336t-.1.336q-.051.168-.1.337t-.1.338q-.049.169-.1.338t-.1.338q-.047.17-.093.34t-.091.34q-.045.17-.09.34t-.088.341q-.044.17-.086.341t-.084.342q-.042.171-.082.342t-.081.343q-.04.171-.079.343t-.077.343q-.038.172-.075.344t-.073.344q-.036.172-.071.345t-.07.345q-.034.172-.068.345t-.066.345q-.033.173-.064.346T4.9,219.3q-.031.173-.06.346T4.784,220q-.029.174-.057.347t-.055.348q-.027.174-.053.348t-.052.348q-.025.174-.049.348t-.048.349q-.023.174-.046.349t-.044.349q-.021.175-.042.349t-.04.349q-.02.175-.038.35t-.036.35q-.018.175-.035.35t-.033.35q-.016.175-.031.35t-.029.351q-.014.175-.027.35t-.025.351q-.012.176-.023.351T4,226.986q-.01.176-.02.351t-.018.351q-.008.176-.016.351t-.014.351q-.007.176-.012.351t-.01.352q0,.176-.008.351t-.007.352q0,.176-.005.352t0,.351q0,.176,0,.352v.126q0,.176,0,.352t0,.352q0,.176.005.351t.007.352q0,.176.009.351t.011.352q.006.176.013.351t.014.351q.008.176.017.351t.019.351q.01.176.02.351t.022.351q.012.176.024.351t.026.351q.013.175.028.351t.029.35q.015.175.031.35t.034.35q.017.175.035.35t.037.35q.019.175.039.349t.041.35q.021.174.042.349t.044.349q.023.174.047.348t.048.349q.025.174.05.348t.052.348q.026.174.054.347t.056.348q.028.173.057.347t.059.347q.03.173.061.347t.063.346q.032.173.065.346t.067.346q.034.173.069.345t.07.345q.036.172.072.344t.074.344q.038.172.076.344t.077.343q.039.171.08.343t.081.342q.041.171.083.342t.085.341q.043.171.087.341t.089.341q.045.17.09.34t.092.339q.047.17.094.339t.1.339q.048.169.1.338t.1.337q.05.169.1.337t.1.336q.052.168.1.336t.106.335q.054.168.109.335l.11.334.112.333.113.333.116.332.117.332.119.331.12.33.122.33.125.329.126.329.128.328.129.327.131.327.133.326.135.325.136.324.138.324.14.322.142.322.144.321.145.32.147.32.148.319.15.318.152.317.153.317.155.316.157.315.159.314.16.313.162.313.163.311.165.311.166.31.168.309.17.308.172.307.174.306.175.305.177.3.178.3.18.3.181.3.183.3.184.3.186.3.188.3.19.3.191.3.193.295.194.293.2.292.2.292.2.29.2.289.2.288.2.287.2.286.207.285.208.284.209.283.211.282.212.28.214.28.215.278.217.277.218.276.22.275.221.273.222.272.224.271.226.27.227.269.228.268.229.267.231.265.233.264.234.263.235.261.237.26.238.259.239.257.241.256.242.255.244.254.245.252.246.251.248.25.249.249.25.247.252.246.253.244.254.243.256.242.257.241.258.239.259.238.26.237.262.235.263.234.264.232.266.231.267.229.268.228.269.227.27.225.272.224.273.222.274.221.275.219.276.218.278.216.279.214.28.213.281.212.282.21.283.209.284.207.285.206.286.2.288.2.288.2.29.2.29.2.292.2.292.195.294.194.295.192.3.19.3.189.3.187.3.186.3.184.3.182.3.181.3.179.3.177.3.176.305.174.306.173.307.171.308.169.309.168.31.166.311.164.312.163.313.161.314.16.314.158.315.157.316.155.317.152.318.151.318.149.319.148.32.146.321.145.321.143.322.141.323.139.324.137.325.136.326.134.326.132.327.131.327.129.328.127.329.125.329.124.33.121.331.12.331.118.332.116.333.115.333.113.334.111.334.11.335.108.335.106.336.1.336.1.337.1.338.1.338.1.338.1.34.094.34.091.34.09.341.088.341.086.342.084.342.082.343.081.343.079.343.077.344.075.344.073.345.071.345.07.345.068.345.066.346.064.346.062.346.061.347.058.347.057.348.055.348.053.348.052.348.049.349.048.349.046.349.044.349.042.349.04.35.038.35.036.35.035.35.033.35.031.351.029.35.027.351.025.351.023.351.022.351.02.351.018.351.016.351.014.351.012.352.01.351.008.352.007.352.005.351,0h.477l.352,0,.352,0,.351-.005.352-.007.351-.009.352-.011.351-.013.351-.014.351-.017.351-.019.351-.02.351-.022.351-.024.351-.026.351-.028.35-.029.35-.032.35-.034.35-.035.35-.037.349-.039.35-.041.349-.042.349-.044.348-.047.349-.048.348-.05.348-.052.347-.054.348-.056.347-.057.347-.059.347-.061.346-.063.346-.065.346-.067.345-.069.345-.07.344-.072.344-.074.344-.076.343-.078.343-.08.342-.081.342-.083.341-.085.341-.087.341-.089.34-.09.34-.092.339-.094.338-.1.338-.1.337-.1.337-.1.336-.1.336-.1.335-.106.335-.109.334-.11.333-.112.333-.113.332-.116.332-.117.331-.119.33-.12.33-.122.329-.125.329-.126.328-.128.327-.129.327-.131.326-.133.325-.135.324-.136.324-.138.322-.14.322-.142.321-.144.32-.145.32-.147.319-.148.318-.15.317-.152.317-.153.316-.155.315-.157.314-.159.313-.16.313-.162.311-.163.311-.165.31-.166.309-.168.308-.17.307-.172.306-.174.305-.175.3-.177.3-.178.3-.18.3-.181.3-.183.3-.184.3-.186.3-.188.3-.19.3-.191.295-.193.293-.194.292-.2.291-.2.29-.2.289-.2.288-.2.287-.2.286-.2.285-.207.284-.208.283-.209.282-.211.28-.212.28-.214.278-.215.277-.217.276-.218.275-.22.273-.221.272-.222.271-.224.27-.226.269-.227.268-.228.267-.229.265-.232.264-.233.263-.234.261-.235.26-.237.259-.238.257-.239.256-.241.255-.242.254-.244.252-.245.251-.246.25-.248.249-.249.247-.25.246-.252.244-.253.243-.254.242-.256.241-.257.239-.258.238-.259.237-.26.235-.262.234-.263.232-.264.231-.266.229-.267.228-.268.227-.269.225-.27.224-.272.222-.273.221-.274.219-.275.218-.276.217-.277.214-.279.213-.28.212-.281.21-.282.209-.283.207-.284.206-.285.2-.286.2-.288.2-.288.2-.29.2-.29.2-.292.195-.293.194-.294.192-.295.19-.3.189-.3.187-.3.186-.3.184-.3.182-.3.181-.3.179-.3.177-.3.176-.3.174-.305.173-.306.171-.307.169-.309.168-.309.166-.31.164-.311.163-.312.161-.313.16-.314.158-.314.157-.315.155-.316.152-.317.151-.318.149-.318.148-.319.146-.32.145-.321.143-.321.141-.322.139-.323.137-.323.136-.325.134-.326.132-.326.131-.327.129-.327.127-.328.125-.329.124-.329.121-.33.12-.331.118-.331.116-.332.115-.333.113-.333q.056-.167.111-.334t.11-.334q.054-.167.108-.335t.106-.335q.052-.168.1-.336t.1-.336q.051-.168.1-.337t.1-.338q.049-.169.1-.338t.1-.338q.047-.17.094-.34t.092-.339q.045-.17.09-.34t.088-.341q.044-.17.086-.341t.084-.342q.042-.171.082-.342t.081-.343q.04-.171.078-.343t.077-.343q.038-.172.075-.344t.073-.344q.036-.172.071-.345t.07-.345q.034-.173.068-.345t.066-.345q.033-.173.064-.346t.063-.346q.031-.173.061-.346t.058-.347q.029-.174.057-.347t.055-.348q.027-.174.053-.348t.052-.348q.025-.174.049-.348t.048-.349q.024-.174.046-.349t.044-.349q.021-.175.042-.349t.04-.349q.02-.175.038-.35t.036-.35q.018-.175.035-.35t.033-.35q.016-.175.031-.35t.029-.351q.014-.175.027-.35t.025-.351q.012-.176.023-.351t.022-.351q.01-.176.02-.351t.018-.351q.008-.176.016-.351t.014-.351q.007-.176.012-.351t.01-.352q0-.176.008-.351t.007-.352q0-.176.005-.352t0-.351q0-.176,0-.352v-.126q0-.176,0-.352t0-.351q0-.176,0-.352t-.007-.352q0-.176-.009-.351t-.011-.352q-.006-.176-.013-.351t-.014-.351q-.008-.176-.016-.351t-.019-.351q-.01-.176-.02-.351t-.022-.351q-.012-.175-.024-.351t-.026-.351q-.013-.175-.028-.351t-.029-.35q-.015-.175-.032-.35t-.034-.35q-.017-.175-.035-.35t-.037-.35q-.019-.175-.039-.349t-.041-.35q-.021-.174-.042-.349t-.044-.349q-.023-.174-.046-.348t-.048-.349q-.025-.174-.05-.348t-.052-.348q-.026-.174-.054-.347t-.056-.348q-.028-.173-.057-.347t-.059-.347q-.03-.173-.061-.347t-.063-.346q-.032-.173-.065-.346t-.067-.346q-.034-.173-.069-.345t-.07-.345q-.036-.172-.072-.344t-.074-.344q-.038-.172-.076-.344t-.077-.343q-.039-.171-.08-.343t-.081-.342q-.041-.171-.083-.342t-.085-.341q-.043-.171-.087-.341T134,214.03q-.045-.17-.09-.34t-.092-.34q-.047-.17-.094-.339t-.1-.339q-.048-.169-.1-.338t-.1-.337q-.05-.169-.1-.337t-.1-.336q-.052-.168-.1-.336t-.106-.335q-.054-.168-.109-.335t-.11-.334l-.112-.333-.113-.333-.116-.332-.117-.332-.119-.331-.12-.33-.122-.33-.125-.329-.126-.329-.128-.328-.129-.327-.131-.327-.133-.326-.135-.325-.136-.324-.138-.324-.14-.322-.142-.322-.144-.321-.145-.32-.147-.32-.148-.319-.15-.318-.152-.317-.153-.317-.155-.316-.157-.315-.159-.314-.16-.313-.162-.313-.163-.311-.165-.311-.166-.31-.168-.309-.17-.308-.172-.307-.174-.306-.175-.305-.177-.3-.178-.3-.18-.3-.181-.3-.183-.3-.184-.3-.186-.3-.188-.3-.19-.3-.191-.3-.193-.295-.194-.293-.2-.292-.2-.291-.2-.29-.2-.289-.2-.288-.2-.287-.2-.286-.207-.285-.208-.284-.209-.283-.211-.282-.212-.28-.214-.28-.215-.278-.217-.277-.218-.276-.22-.275-.221-.273-.222-.272-.224-.271-.226-.27-.227-.269-.228-.268L120,187.51l-.232-.265-.233-.264-.234-.263-.235-.261-.237-.26-.238-.259-.239-.257-.241-.256-.242-.255-.244-.254-.245-.252-.246-.251-.248-.25-.249-.249-.25-.247-.252-.246-.253-.244-.254-.243-.256-.242-.257-.241-.258-.239-.259-.238-.26-.237-.262-.235-.263-.234-.264-.232-.266-.231-.267-.229-.268-.228-.269-.227-.27-.225-.272-.224-.273-.222-.274-.221-.275-.219-.276-.218-.278-.217-.279-.214-.28-.213-.281-.212-.282-.21-.283-.209-.284-.207-.285-.206-.286-.2-.288-.2-.288-.2-.29-.2-.29-.2-.292-.2-.292-.195-.294-.194-.295-.192-.3-.19-.3-.189-.3-.187-.3-.186-.3-.184-.3-.182-.3-.181-.3-.179-.3-.177-.3-.176-.305-.174-.306-.173-.307-.172-.309-.169-.309-.168-.31-.166-.311-.164-.312-.163-.313-.161-.314-.16-.314-.158-.315-.157-.316-.155-.317-.152-.318-.151-.318-.149-.319-.148-.32-.146-.321-.145-.321-.143-.322-.141-.323-.14-.323-.137-.325-.136-.326-.134-.326-.132-.327-.131-.327-.129-.328-.127-.329-.125-.329-.124-.33-.121-.331-.12-.331-.118-.332-.116-.333-.115-.333-.113-.334-.111-.334-.11-.335-.108-.335-.106-.336-.1-.336-.1-.337-.1-.338-.1-.338-.1-.338-.1-.34-.094-.34-.092-.34-.09-.341-.088-.341-.086-.342-.084-.342-.082-.343-.081-.343-.079-.343-.077L84,166.2l-.344-.073-.345-.071-.345-.07-.345-.068-.345-.066-.346-.064-.346-.062-.346-.061-.347-.058-.347-.057-.348-.055-.348-.053-.348-.052-.348-.049-.349-.048-.349-.046L78.1,165.2l-.349-.042-.349-.04-.35-.038-.35-.036-.35-.035-.35-.033-.35-.031-.351-.029-.35-.027-.351-.025-.351-.023-.351-.022-.351-.02-.351-.018-.351-.016-.351-.014-.351-.012-.352-.01-.351-.008-.352-.007-.352-.005-.351,0h-.478Z" transform="translate(-3.887 0)" fill="url(#linear-gradient)"/>
    <path class='pcolor'  id="path3502" d="M76.093,296.721l.037,0,.35-.034.35-.035.35-.037.349-.039.35-.041.349-.042.349-.044.348-.047.349-.048.348-.05.348-.052.347-.054.348-.056.347-.057.347-.059.347-.061.346-.063.346-.065.346-.067.345-.069.345-.07.344-.072.344-.074.344-.076.343-.078.343-.08.342-.081.342-.083.341-.085.341-.087.341-.089.34-.09.34-.092.339-.094.338-.1.338-.1.337-.1.337-.1.336-.1.336-.1.335-.106.335-.109.334-.11.333-.112.333-.113.332-.116.332-.117.331-.119.33-.12.33-.122.329-.125.329-.126.328-.128.327-.129.327-.131.326-.133.325-.135.324-.136.324-.138.322-.14.322-.142.321-.144.32-.145.32-.147.319-.148.318-.15.317-.152.317-.153.316-.155.315-.157.314-.159.313-.16.313-.162.311-.163.311-.165.31-.166.309-.168.308-.17.307-.172.306-.174.305-.175.3-.177.3-.178.3-.18.3-.181.3-.183.3-.185.3-.186.3-.188.3-.19.3-.191.295-.193.293-.194.292-.2.291-.2.29-.2.289-.2.288-.2.287-.2.286-.2.285-.207.284-.208.283-.209.282-.211.28-.212.28-.214.278-.215.277-.217.276-.218.275-.22.273-.221.272-.222.271-.224.27-.226.269-.227.268-.228.267-.229.265-.232.264-.233.263-.234.261-.235.26-.237.259-.238.257-.239.256-.241.255-.242.254-.244.252-.245.251-.246.25-.248.249-.249.247-.25.246-.252.244-.253.243-.254.242-.256.241-.257.239-.258.238-.259.237-.26.235-.262.234-.263.232-.264.231-.266.229-.267.228-.268.227-.269.225-.27.224-.272.222-.273.221-.274.219-.275.218-.276.217-.277.214-.279.213-.28.212-.281.21-.282.209-.283.207-.284.206-.285.2-.286.2-.288.2-.288.2-.29.2-.29.2-.292.195-.292.194-.294.192-.295.19-.3.189-.3.187-.3.186-.3.184-.3.182-.3.181-.3.179-.3.177-.3.176-.3.174-.305.173-.306.171-.307.169-.309.168-.309.166-.31.164-.311.163-.312.161-.313.16-.314.158-.314.157-.315.155-.316.152-.317.151-.318.149-.318.148-.319.146-.32.145-.321.143-.321.141-.322.139-.323.137-.323.136-.325.134-.326.132-.326.131-.327.129-.327.127-.328.125-.329.124-.329.121-.33.12-.331.118-.331.116-.332.115-.333.113-.333.111-.334q.055-.167.11-.334l.108-.335q.053-.168.106-.335t.1-.336q.052-.168.1-.336t.1-.337q.05-.169.1-.338t.1-.338q.048-.169.1-.338t.094-.34q.046-.17.091-.34t.09-.34q.044-.17.088-.341t.086-.341q.043-.171.084-.342t.082-.342q.041-.171.081-.343t.078-.343q.039-.171.077-.343t.075-.344q.037-.172.073-.344t.071-.345q.035-.172.07-.345t.068-.345q.034-.173.066-.345t.064-.346q.032-.173.063-.346t.061-.346q.03-.173.058-.347t.057-.347q.028-.174.055-.348t.053-.348q.026-.174.052-.348t.049-.348q.024-.174.048-.349t.046-.349q.022-.174.044-.349t.042-.349q.021-.175.04-.349t.038-.35q.019-.175.036-.35t.035-.35q.017-.175.033-.35t.031-.35q.015-.175.029-.351t.027-.35q.013-.175.025-.351t.023-.351q.011-.175.022-.351t.02-.351q.009-.176.018-.351t.016-.351q.007-.176.014-.351t.012-.351q.006-.176.01-.352t.008-.351q0-.176.007-.352t.005-.352q0-.176,0-.351t0-.352v-.126q0-.176,0-.352t0-.351q0-.176,0-.352t-.007-.352q0-.176-.009-.351t-.011-.352q-.006-.176-.013-.351t-.014-.351q-.008-.176-.016-.351t-.019-.351q-.01-.176-.02-.351t-.022-.351q-.012-.175-.024-.351t-.026-.351q-.013-.175-.028-.351t-.03-.35q-.015-.175-.032-.35t-.034-.35q-.017-.175-.035-.35t-.037-.35q-.019-.175-.039-.349t-.041-.35q-.021-.174-.042-.349t-.044-.349q-.023-.174-.046-.348t-.048-.349q-.025-.174-.05-.348t-.052-.348q-.026-.174-.054-.347t-.056-.348q-.028-.173-.057-.347l-.023-.137-28.026-18.253s-10.97,1.023-15.852,2.907l-9.427-1.308c-3.234,2.372-1.091,7.2-1.458,10.875l.79,2.35-23.132-15.7a98.254,98.254,0,0,1-11.67,3.256L36.893,202.6l-3.556-.156c-1.832,1.35-2.731,6.733-1.458,10.875l.219,4.926L20.975,239.338Z" transform="translate(-3.887 0)" fill="#800034"/>
    <path class='tcolor'  id="Trazado_827" data-name="Trazado 827" d="M-1915.608-826.922a46.9,46.9,0,0,1,1.6-15.723c1.665-4.282,6.163-6.615,9.953-7.857a18.206,18.206,0,0,0,13.155,5.483,18.2,18.2,0,0,0,13.208-5.536c2.246.752,4.122,1.553,4.122,1.553,6.84,3.241,7.287,12.622,7.287,12.622l.216,9.457s-4.084,7.367-24.771,7.367S-1915.608-826.922-1915.608-826.922Zm-24.346-20.893.191-8.327s.393-8.258,6.415-11.112c0,0,2.171-.927,4.517-1.653a18.121,18.121,0,0,0,13.766,6.155,18.738,18.738,0,0,0,6.955-1.333,15.006,15.006,0,0,0-.3,2.969,15.063,15.063,0,0,0,2.344,8.068c-1.007.365-1.649.84-2.878,1.366-5.095,2.74-7.008,4.957-8.752,10.345-.153,0-.3,0-.452,0C-1936.358-841.332-1939.954-847.815-1939.954-847.815Zm75.856,6.446a17.385,17.385,0,0,0-8.188-10.343l-.053-.025-.051-.022c-1.229-.527-2.33-.956-3.337-1.322a15.06,15.06,0,0,0,2.344-8.068,15.013,15.013,0,0,0-.3-2.969,18.719,18.719,0,0,0,6.955,1.333,18.121,18.121,0,0,0,13.766-6.155c2.346.726,4.517,1.653,4.517,1.653,6.022,2.854,6.415,11.113,6.415,11.113l.191,8.326s-3.6,6.484-21.807,6.484C-1863.8-841.364-1863.945-841.369-1864.1-841.37Zm-26.942-6.235a12.845,12.845,0,0,1-9.25-3.811s3.64.4,4.463.028a13.853,13.853,0,0,1-8.875-3.979,15.584,15.584,0,0,1,0-11.767,4.638,4.638,0,0,1,2.728-1.327,22.978,22.978,0,0,0,4.954,1.327,19.836,19.836,0,0,1-4.117-2.378,13.48,13.48,0,0,1,7.014-4.2,5.275,5.275,0,0,0,.758,4.619s-1.37-4.593,2.393-5.481c0,0,3.427.511,2.331,5.548a4.726,4.726,0,0,0,.877-4.649,11.885,11.885,0,0,1,6.829,4.2,13.784,13.784,0,0,1-4.137,2.32s3.836-.529,5-1.294c0,0,2.648.217,3.065,1.775l.418,1.558a15.654,15.654,0,0,1-.671,9.763s-3.982,3.821-8.979,3.968a12.973,12.973,0,0,0,4.523-.032,12.94,12.94,0,0,1-9.274,3.818Zm-.132-6.673c.029,0,.058,0,.087,0a5.12,5.12,0,0,1,2.854.921,4.524,4.524,0,0,0,2.057.472,6.8,6.8,0,0,0,2.349-.508,16.759,16.759,0,0,0,5.068-2.759s2.43-5.785,0-9.994c0,0-12.471,6.065-24.487-.1,0,0-2.286,6.065,0,10.023,0,0,1.8,2.082,6.187,3.146,0,0,2.485.479,3.3-.284a6.537,6.537,0,0,1,2.581-.922Zm-4.924.332,2.34-8.694,1.318.022-2.295,8.676Zm-4.5-1.534,2.135-7.9a30.833,30.833,0,0,0,3.577.55l-2.283,8.758A14.669,14.669,0,0,1-1900.6-855.481Zm33.806-9.95a12.848,12.848,0,0,1-9.25-3.811s3.64.4,4.463.028a13.853,13.853,0,0,1-8.875-3.979,15.584,15.584,0,0,1,0-11.767,4.638,4.638,0,0,1,2.728-1.327,22.978,22.978,0,0,0,4.954,1.327,19.834,19.834,0,0,1-4.118-2.378,13.481,13.481,0,0,1,7.014-4.2,5.274,5.274,0,0,0,.758,4.618s-1.369-4.593,2.394-5.481c0,0,3.426.511,2.33,5.548a4.726,4.726,0,0,0,.878-4.649,11.889,11.889,0,0,1,6.83,4.2,13.794,13.794,0,0,1-4.138,2.321s3.836-.53,5-1.3c0,0,2.649.217,3.065,1.775l.418,1.558a15.657,15.657,0,0,1-.671,9.764s-3.982,3.82-8.979,3.967a12.974,12.974,0,0,0,4.523-.032,12.94,12.94,0,0,1-9.274,3.818Zm-.045-6.672a5.117,5.117,0,0,1,2.854.922,4.53,4.53,0,0,0,2.057.471,6.8,6.8,0,0,0,2.349-.508,16.762,16.762,0,0,0,5.068-2.759s2.43-5.784,0-9.994c0,0-12.471,6.065-24.487-.1,0,0-2.285,6.065,0,10.023,0,0,1.8,2.082,6.188,3.146,0,0,2.484.479,3.3-.283a6.54,6.54,0,0,1,2.582-.924Zm-48.55,6.033a12.848,12.848,0,0,1-9.251-3.812s3.64.4,4.463.028a13.853,13.853,0,0,1-8.875-3.979,15.583,15.583,0,0,1,0-11.767,4.637,4.637,0,0,1,2.728-1.328,22.978,22.978,0,0,0,4.953,1.328,19.834,19.834,0,0,1-4.117-2.378,13.48,13.48,0,0,1,7.014-4.2,5.275,5.275,0,0,0,.758,4.619s-1.37-4.593,2.393-5.481c0,0,3.427.511,2.331,5.548a4.725,4.725,0,0,0,.877-4.649,11.885,11.885,0,0,1,6.829,4.2,13.782,13.782,0,0,1-4.137,2.32s3.836-.529,5-1.294c0,0,2.648.217,3.065,1.775l.418,1.558a15.653,15.653,0,0,1-.671,9.763s-3.982,3.821-8.979,3.968a12.974,12.974,0,0,0,4.523-.032,12.941,12.941,0,0,1-9.274,3.818Zm-.046-6.672a5.12,5.12,0,0,1,2.854.921,4.524,4.524,0,0,0,2.057.472,6.8,6.8,0,0,0,2.349-.508,16.762,16.762,0,0,0,5.068-2.759s2.43-5.785,0-9.994c0,0-12.471,6.065-24.487-.1,0,0-2.286,6.065,0,10.023,0,0,1.8,2.082,6.187,3.146,0,0,2.485.479,3.3-.284a6.544,6.544,0,0,1,2.582-.923Zm44.057.33,2.34-8.694,1.318.022-2.3,8.676Zm-49.068,0,2.34-8.694,1.318.022-2.3,8.676Zm44.565-1.534,2.135-7.9a30.833,30.833,0,0,0,3.577.55l-2.283,8.758A14.665,14.665,0,0,1-1875.878-873.946Zm-49.068,0,2.135-7.9a30.836,30.836,0,0,0,3.577.55l-2.283,8.758A14.665,14.665,0,0,1-1924.946-873.946Z" transform="translate(1957.042 1087.153)" fill="#fff"/>
  </g>
</svg>
